<?xml version="1.0" encoding="UTF-8"?>
<svg
  xmlns="http://www.w3.org/2000/svg"
  role="img"
  aria-label="ElectroMart logo"
  viewBox="0 0 200 60"
  width="200"
  height="60"
>
  <!-- Icon group -->
  <g transform="translate(0, 13) scale(1.4)">
    <path
      stroke="#FF6F00"
      stroke-width="1.5"
      stroke-linecap="round"
      stroke-linejoin="round"
      fill="none"
      d="M8.25 3v1.5M4.5 8.25H3m18 0h-1.5M4.5 12H3m18 0h-1.5m-15 3.75H3m18 0h-1.5M8.25 19.5V21M12 3v1.5m0 15V21m3.75-18v1.5m0 15V21m-9-1.5h10.5a2.25 2.25 0 0 0 2.25-2.25V6.75a2.25 2.25 0 0 0-2.25-2.25H6.75A2.25 2.25 0 0 0 4.5 6.75v10.5a2.25 2.25 0 0 0 2.25 2.25Zm.75-12h9v9h-9v-9Z"
    />
  </g>

  <!-- Text group -->
  <g transform="translate(40, 33)">
    <text
      x="0"
      y="0"
      font-family="Poppins, sans-serif"
      font-size="24"
      fill="#0D6EFD"
      font-weight="600"
      dominant-baseline="middle"
      text-anchor="start"
    >
      Electro
    </text>
    <text
      x="90"
      y="0"
      font-family="Poppins, sans-serif"
      font-size="24"
      fill="#FF6F00"
      font-weight="700"
      dominant-baseline="middle"
      text-anchor="start"
    >
      Mart
    </text>
  </g>
</svg>
